<svg height="45" fill="none" xmlns="http://www.w3.org/2000/svg" viewBox="0 0 293 59"><path fill-rule="evenodd" clip-rule="evenodd" d="M12 15a23 23 0 1 0 34 19.8V14.6a9.7 9.7 0 0 1-13.4 0h-.1v20.3a9.6 9.6 0 0 1-10.2 9.7 9.5 9.5 0 0 1 .7-18.9 6.8 6.8 0 0 0 0-13.5A23 23 0 0 0 12 15" fill="url(#a)"/><path fill-rule="evenodd" clip-rule="evenodd" d="M46 44.5v13.6H32.3A26 26 0 0 0 46 44.5" fill="url(#b)"/><path d="M46 6.8c0 3.7-3 6.7-6.7 6.7A6.8 6.8 0 1 1 46 6.8" fill="#583E9A"/><path fill-rule="evenodd" clip-rule="evenodd" d="M84.2 51.5c0 3.7-3 6.6-6.8 6.6H58a6.8 6.8 0 0 1-5.6-10.5l11.8-18.9a2 2 0 0 0-1.7-3h-5.3a7 7 0 0 1-6.7-6.6 7 7 0 0 1 7-7h19a7 7 0 0 1 6.9 6.5q0 1.9-.8 3.5l-.5.8-11.9 19c-.7 1.2.2 2.7 1.5 2.7h5.5a7 7 0 0 1 7 7" fill="url(#c)"/><path d="M124.3 44.8v-.6l.4-.2q.5-.2.6-.5l.1-1V27.8l-.1-1-.6-.5-.4-.1v-.6h5.2v.6l-.4.1-.6.6-.1 1v14.6l.1 1q.2.3.6.5l.4.2v.6zm14.2 0v-.6l.6-.2q.4-.1.6-.6l.1-1v-14l-.6-1.4-.4-.5-.4-.3v-.6h3.6l7 13.2V28l-.2-1q-.2-.5-.6-.6l-.6-.2v-.6h3.1v.6l-.5.2q-.4 0-.5.6v18h-1.3l-7.9-15.3v12.7l.1 1q.2.5.6.6l.5.2v.6zm21.2 0v-.6l.4-.2q.5 0 .5-.5l.2-1V31.3l-.1-4.3-.5-.5-.5-.2v-.6h10l.2 4.9h-.6l-1-3-.5-.8q-.2-.3-.8-.3h-3.2v8.1h2q.5 0 .7-.3l.4-.8.5-1.1h.4v5.3h-.4l-.5-1-.4-1-.7-.2h-2v7.1q0 1.2.8 1.5l.6.2v.6zm25.5.5a5 5 0 0 1-2.5-.6q-1-.7-2-2a10 10 0 0 1-1.5-3.1q-.6-1.9-.6-4.4t.6-4.4 1.4-3.2q1-1.2 2.1-2a5 5 0 0 1 4.9 0q1.2.7 2.1 2 .8 1.3 1.5 3.1.5 2 .5 4.5a16 16 0 0 1-.5 4.3q-.6 1.9-1.5 3.2t-2 2a5 5 0 0 1-2.5.6m0-.9q1.2 0 1.9-.8a6 6 0 0 0 1-3q.4-2 .4-5.4t-.3-5.5a6 6 0 0 0-1.1-3q-.7-.8-2-.8-1 0-1.8.9a6 6 0 0 0-1.1 2.9q-.3 2-.3 5.5 0 3.4.3 5.5a6 6 0 0 0 1 2.9q.8.8 2 .8m18 .4v-.6l.8-.2q1-.3 1-1.5v-12l-.1-4h-1.6q-.7-.1-1 .4l-.7 1.4-.7 2.2h-.6l.1-5h12l.1 5h-.6l-.7-2.2-.6-1.4q-.3-.5-1-.5h-1.7v16.1q0 1.2.9 1.5l.9.2v.6zm18 0v-.6l.4-.2q.4-.2.5-.5l.2-1V27.8l-.1-1-.6-.4-.4-.2v-.6h10v4.6h-.5l-.9-2.6q0-.6-.3-.9l-.7-.3h-3.5v8h2q.4 0 .7-.3l.4-.8.3-1.1h.5v5.4h-.5l-.3-1.1-.4-.9-.6-.3h-2.1V44h4q.5 0 .6-.3l.4-.8.8-2.7h.6l-.2 4.7zm26.5.5q-2 0-3.7-1.2-1.6-1.1-2.6-3.4t-1-5.5q0-2.5.7-4.4.5-1.8 1.5-3.2 1-1.2 2.4-2a6 6 0 0 1 5-.2l1.8 1 .1 3.9h-.6l-.8-2.3-.5-1q-.2-.6-.6-.7-.5-.4-1.2-.4-1.2 0-2.3.9a6 6 0 0 0-1.6 2.9 20 20 0 0 0-.6 5.5q0 3.4.6 5.5a6 6 0 0 0 1.5 2.9q1 .9 2.3.8a3 3 0 0 0 1.6-.4q.5-.2.6-.7l.4-1 .8-2.7h.6l-.1 4.2a7 7 0 0 1-4.3 1.5m13.2-.5v-.6l.4-.2q.4-.2.5-.5l.2-1V27.9q0-.6-.2-1l-.5-.5-.4-.1v-.6h5.1v.6l-.3.1q-.5.2-.6.6l-.1.9v6.7h5.2v-6.7q0-.6-.2-1-.1-.3-.5-.5l-.4-.1v-.6h5.2v.6l-.4.1-.6.6-.1.9v14.8l.1.9q.2.3.6.5l.4.2v.6H269v-.6l.4-.2q.3-.1.5-.5l.2-1v-7.2H265v7.3l.1.9q.2.3.6.5l.3.2v.6zm26.6.5a7 7 0 0 1-4.3-1.4l.1-4h.6l.6 2q.3.8.7 1.3.2.6.8.9a2 2 0 0 0 1.4.3q1.2 0 2-.9.7-.9.7-2.4a4 4 0 0 0-.5-2.2q-.5-.7-1.6-1.5l-.9-.5q-1.6-1.1-2.7-2.5-1-1.5-1-3.8 0-1.8.6-3a5 5 0 0 1 4.4-2.6 5 5 0 0 1 3.8 1.5l-.2 3.7h-.6l-.8-2.2-.6-1.4q-.3-.5-.7-.5l-.5-.1h-.4q-1 0-1.8.8-.7.8-.7 2.2t.5 2.3q.6.9 1.7 1.6l.9.5q2 1.2 2.9 2.6t.9 3.6a6 6 0 0 1-1.4 4.1 5 5 0 0 1-4 1.6" fill="#201E1E"/><path d="m105.8 47.3-1 .1-.8-.1zm0-24.3v24.3H104V23zm-1.8 0 .9-.1.9.1z" fill="#E6E7E8"/><defs><linearGradient id="a" x1="5.7" y1="9.9" x2="63.4" y2="77.3" gradientUnits="userSpaceOnUse"><stop stop-color="#5C4DA2"/><stop offset=".3" stop-color="#492F92"/><stop offset=".5" stop-color="#6E3C97"/><stop offset=".7" stop-color="#9D479C"/><stop offset="1" stop-color="#BF80C4"/></linearGradient><linearGradient id="b" x1="43.5" y1="81.6" x2="25.5" y2="-4.9" gradientUnits="userSpaceOnUse"><stop stop-color="#F4CAA7"/><stop offset=".3" stop-color="#94489C"/><stop offset=".5" stop-color="#923A7B"/><stop offset=".7" stop-color="#C93E7A"/><stop offset="1" stop-color="#F05A7C"/></linearGradient><linearGradient id="c" x1="37.7" y1="104.8" x2="31.3" y2="17.3" gradientUnits="userSpaceOnUse"><stop stop-color="#F4CAA7"/><stop offset=".3" stop-color="#AD4A9D"/><stop offset=".5" stop-color="#84429A"/><stop offset=".7" stop-color="#663996"/><stop offset="1" stop-color="#523D9A"/></linearGradient></defs></svg>