<svg width="293" height="59" viewBox="0 0 293 59" fill="none" xmlns="http://www.w3.org/2000/svg">
<path fill-rule="evenodd" clip-rule="evenodd" d="M11.9887 14.9852C4.84671 18.8853 0.000488281 26.4664 0.000488281 35.1806C0.000488281 47.4571 9.6203 57.4847 21.7316 58.1448C34.9742 58.866 46.0011 48.036 46.0011 34.7743V14.5925C46.0011 14.5579 45.9609 14.5409 45.9362 14.5645C44.1899 16.2164 41.8333 17.2249 39.2389 17.2249H39.2032C36.6243 17.2168 34.2795 16.2087 32.5413 14.5645C32.5162 14.5405 32.4764 14.5579 32.4764 14.5925V34.9151C32.4764 40.5194 27.8872 45.0401 22.2984 44.6289C17.3935 44.268 13.5266 40.1739 13.5266 35.1813C13.5266 31.1972 15.9813 27.7923 19.4628 26.3908C20.5565 25.948 21.7501 25.7046 23.0037 25.7046L22.9776 25.7042L23.0078 25.7046H23.0318C26.7681 25.7046 29.7943 22.6747 29.7943 18.9421C29.7943 15.2054 26.7681 12.1796 23.0318 12.1796C21.2729 12.1796 16.6335 12.4432 11.9894 14.9863L11.9887 14.9852Z" fill="url(#paint0_linear_2254_165)"/>
<path fill-rule="evenodd" clip-rule="evenodd" d="M46.0009 44.5061V58.1429L32.2915 58.1477C38.3955 55.6407 43.4622 50.5938 46.0009 44.5057V44.5061Z" fill="url(#paint1_linear_2254_165)"/>
<path d="M46.0324 6.76252C46.0324 10.4952 43.0066 13.525 39.2698 13.525H39.2459C36.3277 13.5129 33.8488 11.6563 32.9107 9.06192C32.6471 8.34326 32.5073 7.56893 32.5073 6.76252C32.5073 3.0258 35.5331 0 39.2695 0C43.0062 0 46.032 3.0258 46.032 6.76252H46.0324Z" fill="#583E9A"/>
<path fill-rule="evenodd" clip-rule="evenodd" d="M84.1763 51.5076C84.1106 55.1835 81.1103 58.147 77.4148 58.147H58.0296C55.1111 58.1348 52.6321 56.2783 51.6941 53.6839C51.4308 52.9652 51.291 52.1909 51.291 51.3845C51.291 49.9991 51.7059 48.7137 52.4205 47.6437L52.4525 47.5961L64.2036 28.7035C65.017 27.3956 64.0771 25.7039 62.5369 25.7039H57.2313C54.3131 25.6917 51.8342 23.8355 50.8961 21.2408C50.6509 20.5719 50.513 19.8547 50.4946 19.1088C50.4031 15.2983 53.6192 12.1788 57.4304 12.1788H76.43C80.0664 12.1788 83.1921 14.9712 83.3706 18.6029C83.4325 19.858 83.1482 21.0438 82.6088 22.0748L82.5966 22.0947L82.0896 22.9133L70.2416 41.9918C69.5295 43.1385 70.354 44.6216 71.7043 44.6216H77.2375C81.0251 44.6216 84.2441 47.7208 84.1763 51.5076Z" fill="url(#paint2_linear_2254_165)"/>
<path d="M124.295 44.7981V44.1871L124.712 44.012C124.99 43.8763 125.174 43.6967 125.265 43.4733C125.355 43.2502 125.401 42.9349 125.401 42.5271V27.8262C125.401 27.4187 125.355 27.1031 125.265 26.88C125.174 26.6566 124.99 26.477 124.712 26.3413L124.295 26.1665V25.5552H129.506V26.1665L129.089 26.3413C128.825 26.477 128.645 26.6566 128.547 26.88C128.45 27.1031 128.401 27.4187 128.401 27.8262V42.5271C128.401 42.9349 128.45 43.2502 128.547 43.4733C128.644 43.6967 128.825 43.8763 129.089 44.012L129.506 44.1871V44.7981H124.295Z" fill="white"/>
<path d="M138.502 44.7982V44.1872L139.106 43.9542C139.37 43.8576 139.554 43.6729 139.658 43.4011C139.763 43.1294 139.815 42.7993 139.815 42.4114V28.3222C139.69 27.9535 139.582 27.6766 139.492 27.4922C139.402 27.3082 139.308 27.1478 139.21 27.0121C139.113 26.8761 138.981 26.7208 138.814 26.5461L138.439 26.1677V25.5564H142.003L148.924 38.7728V27.9727C148.924 27.5844 148.878 27.2452 148.788 26.9543C148.698 26.663 148.514 26.469 148.236 26.3717L147.61 26.1681V25.5568H150.716V26.1681L150.195 26.3717C149.931 26.4882 149.768 26.6869 149.706 26.9683C149.643 27.25 149.612 27.5844 149.612 27.9723V44.9147H148.445L140.504 29.6611V42.3823C140.504 42.7898 140.545 43.1294 140.629 43.4011C140.712 43.6729 140.886 43.8572 141.15 43.9542L141.712 44.1872V44.7982H138.503H138.502Z" fill="white"/>
<path d="M159.711 44.7982V44.1872L160.107 44.0412C160.385 43.9247 160.565 43.7503 160.649 43.5173C160.733 43.2846 160.781 42.9642 160.795 42.5563C160.809 41.4502 160.816 40.3296 160.816 39.1943C160.816 38.0589 160.816 36.9188 160.816 35.7739V34.5803C160.816 33.455 160.816 32.3292 160.816 31.2039C160.816 30.0785 160.809 28.9524 160.795 27.827C160.781 27.4196 160.739 27.104 160.67 26.8809C160.6 26.6574 160.434 26.4878 160.17 26.3713L159.711 26.1677V25.5564H169.737L169.883 30.4764H169.32L168.236 27.5944C168.097 27.2256 167.944 26.9395 167.778 26.7356C167.611 26.5321 167.368 26.4299 167.048 26.4299H163.839C163.825 27.7301 163.814 29.0645 163.807 30.4329C163.801 31.8012 163.797 33.1644 163.797 34.5228H165.798C166.117 34.5228 166.354 34.421 166.506 34.2175C166.659 34.0132 166.805 33.7275 166.944 33.3584L167.361 32.2817H167.819V37.6087H167.361L166.944 36.5608C166.791 36.1725 166.642 35.8768 166.496 35.6729C166.35 35.4686 166.117 35.3672 165.798 35.3672H163.797C163.797 36.6482 163.797 37.8757 163.797 39.0497C163.797 40.2241 163.803 41.3738 163.817 42.4992C163.817 43.2953 164.074 43.7897 164.589 43.9837L165.214 44.188V44.799H159.711L159.711 44.7982Z" fill="white"/>
<path d="M185.172 45.293C184.325 45.293 183.512 45.0799 182.734 44.6529C181.956 44.2259 181.257 43.5906 180.639 42.7462C180.021 41.9018 179.531 40.849 179.169 39.5876C178.808 38.3262 178.627 36.8513 178.627 35.1628C178.627 33.5131 178.808 32.0578 179.169 30.796C179.531 29.5349 180.021 28.477 180.639 27.623C181.257 26.7694 181.959 26.1238 182.744 25.6872C183.529 25.2506 184.338 25.0323 185.172 25.0323C186.006 25.0323 186.815 25.2458 187.6 25.6728C188.386 26.0995 189.084 26.7351 189.696 27.5792C190.307 28.4236 190.793 29.4767 191.155 30.7377C191.516 31.9991 191.697 33.4741 191.697 35.1628C191.697 36.8122 191.516 38.2676 191.155 39.5294C190.793 40.7908 190.307 41.8483 189.696 42.7023C189.084 43.5566 188.389 44.2015 187.611 44.6381C186.833 45.0751 186.02 45.293 185.172 45.293H185.172ZM185.172 44.4198C185.964 44.4198 186.603 44.1333 187.09 43.5611C187.576 42.9884 187.931 42.0227 188.153 40.6643C188.375 39.3059 188.486 37.4718 188.486 35.1625C188.486 32.8528 188.375 31.0238 188.153 29.675C187.93 28.3262 187.576 27.3657 187.09 26.793C186.603 26.2204 185.964 25.9343 185.172 25.9343C184.394 25.9343 183.758 26.2204 183.265 26.793C182.772 27.3657 182.414 28.3258 182.192 29.675C181.97 31.0238 181.858 32.8528 181.858 35.1625C181.858 37.4718 181.97 39.3059 182.192 40.6643C182.414 42.0227 182.772 42.9884 183.265 43.5611C183.759 44.1333 184.394 44.4198 185.172 44.4198Z" fill="white"/>
<path d="M203.213 44.7981V44.1871L204.047 43.9541C204.631 43.7793 204.922 43.304 204.922 42.5278V34.5806C204.922 33.2222 204.922 31.8638 204.922 30.505C204.922 29.1466 204.916 27.7878 204.902 26.4294H203.255C202.81 26.4294 202.484 26.5946 202.275 26.9243C202.067 27.2543 201.858 27.7204 201.65 28.3218L200.921 30.4759H200.337L200.441 25.5559H212.405L212.509 30.4759H211.926L211.196 28.3218C210.988 27.72 210.779 27.2539 210.571 26.9243C210.363 26.5946 210.036 26.4294 209.592 26.4294H207.924V42.5275C207.924 43.3236 208.216 43.7988 208.8 43.9537L209.654 44.1867V44.7977H203.214L203.213 44.7981Z" fill="white"/>
<path d="M221.192 44.7981V44.1871L221.609 43.9828C221.859 43.8862 222.033 43.7159 222.13 43.4733C222.227 43.231 222.283 42.8962 222.297 42.4692V27.8265C222.283 27.4191 222.234 27.1035 222.151 26.8804C222.067 26.6569 221.894 26.4873 221.63 26.3708L221.192 26.1673V25.5559H231.113L231.259 30.2137H230.676L229.842 27.5939C229.731 27.2251 229.606 26.939 229.467 26.7351C229.328 26.5316 229.119 26.4294 228.842 26.4294H225.299C225.284 27.633 225.278 28.8697 225.278 30.1411C225.278 31.4125 225.278 32.8439 225.278 34.4349H227.341C227.619 34.4349 227.831 34.3332 227.977 34.1293C228.123 33.9257 228.258 33.6492 228.383 33.2996L228.738 32.1934H229.196V37.5791H228.738L228.362 36.4729C228.251 36.1234 228.126 35.842 227.987 35.6285C227.848 35.415 227.64 35.3085 227.362 35.3085H225.278C225.278 36.7056 225.278 37.9087 225.278 38.9183C225.278 39.9275 225.281 40.8247 225.288 41.6108C225.295 42.3969 225.299 43.1683 225.299 43.925H229.301C229.578 43.925 229.794 43.8232 229.947 43.6196C230.1 43.4154 230.225 43.1296 230.322 42.7605L231.094 40.1407H231.677L231.531 44.7985H221.193L221.192 44.7981Z" fill="white"/>
<path d="M247.654 45.293C246.306 45.293 245.09 44.9047 244.006 44.1285C242.922 43.3527 242.065 42.2074 241.432 40.6938C240.8 39.1802 240.484 37.3365 240.484 35.1628C240.484 33.5323 240.675 32.0865 241.057 30.8251C241.439 29.564 241.967 28.5014 242.641 27.6378C243.315 26.7742 244.09 26.1238 244.965 25.6872C245.841 25.2506 246.772 25.0323 247.759 25.0323C248.523 25.0323 249.238 25.1537 249.905 25.3963C250.572 25.6389 251.211 25.9929 251.823 26.4586L251.906 30.272H251.344L250.468 27.9722C250.329 27.584 250.18 27.2348 250.02 26.9243C249.86 26.6138 249.655 26.3908 249.405 26.2551C249.058 26.0224 248.648 25.9059 248.176 25.9059C247.356 25.9059 246.608 26.1968 245.935 26.779C245.261 27.3616 244.723 28.3266 244.32 29.6758C243.916 31.0246 243.715 32.8634 243.715 35.1923C243.715 37.5017 243.906 39.3358 244.288 40.6942C244.67 42.0526 245.188 43.0183 245.841 43.5909C246.494 44.1632 247.231 44.4497 248.05 44.4497C248.426 44.4497 248.731 44.4106 248.968 44.3332C249.204 44.2554 249.44 44.1488 249.676 44.0127C249.954 43.8579 250.17 43.6296 250.323 43.3288C250.475 43.0279 250.607 42.6835 250.718 42.2956L251.51 39.6466H252.073L251.99 43.8383C251.392 44.3044 250.732 44.6636 250.01 44.9154C249.287 45.168 248.502 45.2937 247.654 45.2937L247.654 45.293Z" fill="white"/>
<path d="M260.88 44.7981V44.1871L261.276 44.012C261.554 43.8763 261.742 43.6967 261.839 43.4733C261.936 43.2502 261.985 42.9445 261.985 42.5562V27.8262C261.985 27.4379 261.94 27.1278 261.849 26.8944C261.759 26.6617 261.575 26.477 261.297 26.3413L260.88 26.1665V25.5552H266.028V26.1665L265.674 26.3122C265.41 26.4479 265.229 26.6274 265.132 26.8509C265.035 27.074 264.986 27.3797 264.986 27.7679V34.4633H270.176V27.7679C270.176 27.3797 270.127 27.074 270.03 26.8509C269.933 26.6274 269.745 26.4479 269.467 26.3122L269.134 26.1665V25.5552H274.282V26.1665L273.886 26.3413C273.622 26.477 273.438 26.6566 273.333 26.88C273.229 27.1031 273.177 27.4088 273.177 27.7971V42.5562C273.177 42.9445 273.229 43.2502 273.333 43.4733C273.438 43.6967 273.622 43.8763 273.886 44.012L274.282 44.1871V44.7981H269.134V44.1871L269.467 44.0411C269.745 43.9054 269.933 43.7258 270.03 43.5028C270.127 43.2793 270.176 42.9736 270.176 42.5854V35.3369H264.986V42.5854C264.986 42.9736 265.038 43.2793 265.142 43.5028C265.246 43.7258 265.43 43.9054 265.695 44.0411L266.028 44.1871V44.7981H260.88H260.88Z" fill="white"/>
<path d="M287.467 45.293C286.702 45.293 285.928 45.1621 285.143 44.9003C284.358 44.6381 283.701 44.2937 283.173 43.8667L283.298 39.8203H283.902L284.549 41.8291C284.743 42.3918 284.945 42.8575 285.153 43.2262C285.362 43.5946 285.639 43.8763 285.987 44.0703C286.223 44.2063 286.449 44.2985 286.664 44.3468C286.88 44.3955 287.119 44.4198 287.384 44.4198C288.231 44.4198 288.902 44.1142 289.395 43.5028C289.888 42.8914 290.135 42.081 290.135 41.0718C290.135 40.1599 289.965 39.4416 289.624 38.9176C289.284 38.3933 288.738 37.8889 287.988 37.4036L287.134 36.8797C285.966 36.1614 285.046 35.3269 284.371 34.376C283.697 33.425 283.361 32.1636 283.361 30.5917C283.361 29.4273 283.573 28.4328 283.996 27.6083C284.42 26.7831 285.007 26.1478 285.758 25.7016C286.508 25.2551 287.384 25.032 288.384 25.032C289.121 25.032 289.812 25.1677 290.458 25.4394C291.104 25.7112 291.67 26.0799 292.156 26.5456L292.01 30.1555H291.406L290.635 27.9722C290.412 27.3321 290.2 26.8708 289.999 26.5899C289.798 26.3082 289.551 26.1286 289.259 26.0512C289.092 26.0121 288.95 25.9829 288.832 25.9638C288.714 25.9442 288.558 25.9346 288.363 25.9346C287.682 25.9346 287.095 26.2108 286.601 26.7643C286.108 27.3174 285.861 28.0792 285.861 29.0493C285.861 29.9811 286.049 30.7377 286.424 31.3199C286.799 31.9022 287.341 32.4165 288.05 32.8627L288.988 33.4158C290.336 34.2311 291.302 35.0994 291.885 36.0213C292.469 36.9431 292.761 38.1219 292.761 39.5581C292.761 41.2661 292.299 42.6484 291.375 43.7063C290.451 44.7639 289.148 45.2926 287.466 45.2926L287.467 45.293Z" fill="white"/>
<path d="M105.773 47.2926C105.773 47.3649 105.379 47.4239 104.893 47.4239C104.407 47.4239 104.014 47.3649 104.014 47.2926H105.773ZM105.773 23.0324V47.2926H104.014V23.0324H105.773ZM104.014 23.0324C104.014 22.9601 104.407 22.9011 104.893 22.9011C105.379 22.9011 105.773 22.9601 105.773 23.0324H104.014Z" fill="#E6E7E8"/>
<defs>
<linearGradient id="paint0_linear_2254_165" x1="5.65644" y1="9.94063" x2="63.3786" y2="77.2797" gradientUnits="userSpaceOnUse">
<stop stop-color="#5C4DA2"/>
<stop offset="0.290196" stop-color="#492F92"/>
<stop offset="0.521569" stop-color="#6E3C97"/>
<stop offset="0.741176" stop-color="#9D479C"/>
<stop offset="1" stop-color="#BF80C4"/>
</linearGradient>
<linearGradient id="paint1_linear_2254_165" x1="43.5223" y1="81.6258" x2="25.512" y2="-4.86173" gradientUnits="userSpaceOnUse">
<stop stop-color="#F4CAA7"/>
<stop offset="0.290196" stop-color="#94489C"/>
<stop offset="0.521569" stop-color="#923A7B"/>
<stop offset="0.741176" stop-color="#C93E7A"/>
<stop offset="1" stop-color="#F05A7C"/>
</linearGradient>
<linearGradient id="paint2_linear_2254_165" x1="37.7487" y1="104.83" x2="31.2867" y2="17.316" gradientUnits="userSpaceOnUse">
<stop stop-color="#F4CAA7"/>
<stop offset="0.290196" stop-color="#AD4A9D"/>
<stop offset="0.521569" stop-color="#84429A"/>
<stop offset="0.741176" stop-color="#663996"/>
<stop offset="1" stop-color="#523D9A"/>
</linearGradient>
</defs>
</svg>
