<svg width="84" height="117" viewBox="0 0 84 117" fill="none" xmlns="http://www.w3.org/2000/svg">
<path d="M27.0412 116.906C24.295 115.908 23.359 113.894 23.3796 111.047C23.4642 101.188 23.4115 91.3314 23.4115 81.4724V79.9643C22.3725 79.8681 21.3634 79.6919 20.3564 79.6988C17.4134 79.7148 15.5001 78.4218 14.4634 75.6115C13.4107 72.7623 12.1748 69.984 10.9573 67.1943C10.7146 66.6452 10.3572 66.1544 9.90918 65.7548C7.45129 63.5944 4.97205 61.4584 2.47145 59.3469C0.759629 57.896 0.183045 56.1292 0.711695 53.9414C1.48522 50.8038 2.23109 47.6616 2.92223 44.5058C3.06529 43.8084 3.06071 43.0889 2.9086 42.3934C2.22204 39.2376 1.46461 36.0954 0.702532 32.9578C0.183036 30.818 0.743726 29.0673 2.41893 27.6416C4.91114 25.5201 7.40106 23.3963 9.85666 21.2337C10.3338 20.8101 10.7152 20.2897 10.9757 19.7072C12.2603 16.7443 13.5075 13.7693 14.7173 10.782C15.5938 8.60556 17.1708 7.48647 19.489 7.31483C22.6381 7.08598 25.7871 6.84568 28.9292 6.54589C29.6405 6.47883 30.3294 6.26118 30.95 5.90738C33.7054 4.29473 36.4371 2.64013 39.1452 0.943561C41.127 -0.296823 43.0358 -0.321996 45.0337 0.913811C47.8119 2.63936 50.6093 4.33288 53.4257 5.99435C53.9101 6.28533 54.452 6.46729 55.0138 6.52758C58.1582 6.81822 61.3074 7.09055 64.4587 7.28737C66.9623 7.44299 68.6443 8.56666 69.5735 10.949C70.7063 13.8509 71.9376 16.7161 73.194 19.5653C73.503 20.2472 73.9512 20.8568 74.5099 21.355C76.8694 23.4536 79.2699 25.5087 81.6866 27.534C83.4762 29.0421 84.0553 30.873 83.4855 33.1432C82.7074 36.2388 81.9751 39.3459 81.2886 42.4644C81.1467 43.1251 81.1467 43.8084 81.2886 44.4691C81.9934 47.6594 82.7599 50.8381 83.5266 54.0146C84.0301 56.1017 83.5038 57.8433 81.8721 59.2462C79.3547 61.4066 76.8373 63.5509 74.3588 65.741C73.8816 66.1637 73.5001 66.6833 73.2398 67.2652C71.9697 70.1922 70.7223 73.1307 69.5437 76.0966C68.6398 78.3737 67.008 79.5157 64.5982 79.6576C63.3875 79.7285 62.1792 79.8521 60.8129 79.9643C60.8129 81.7699 60.8266 83.5435 60.8129 85.3171C60.7969 86.7086 60.1082 87.6583 59.0029 87.8894C57.5519 88.1915 56.2955 87.1869 56.2566 85.6192C56.2154 83.9143 56.2566 82.207 56.2566 80.1405C55.1673 80.4655 54.1763 80.5753 53.3799 81.0307C50.5718 82.6327 47.8188 84.3262 45.0726 86.0312C43.0861 87.267 41.1819 87.2693 39.1863 86.0312C36.511 84.356 33.8199 82.7036 31.0828 81.136C30.236 80.6531 29.2106 80.4815 28.0938 80.1062V112.26C28.4852 112.107 28.8605 111.979 29.2198 111.816C33.0256 110.084 36.8383 108.383 40.6235 106.598C41.0935 106.355 41.6151 106.227 42.1444 106.227C42.6737 106.227 43.1951 106.355 43.665 106.598C47.4525 108.367 51.263 110.084 55.0688 111.816C55.4029 111.969 55.7554 112.091 56.2589 112.292C56.2589 110.15 56.2291 108.148 56.2589 106.147C56.2508 105.568 56.4702 105.009 56.8699 104.59C57.2696 104.171 57.8176 103.926 58.3963 103.907C59.5726 103.85 60.5682 104.69 60.7765 105.923C60.7975 106.036 60.8081 106.15 60.8084 106.264C60.8084 108.324 60.8611 110.383 60.7879 112.429C60.7055 114.777 59.2569 116.114 57.1926 116.917H55.1329C50.9701 115.009 46.8117 113.088 42.6374 111.196C42.3014 111.063 41.9277 111.063 41.5917 111.196C37.4174 113.079 33.2568 114.995 29.094 116.901L27.0412 116.906ZM5.09186 55.3442C5.29477 55.6395 5.5246 55.9153 5.77842 56.1681C8.337 58.388 10.9346 60.5644 13.4611 62.8186C14.0731 63.3771 14.5624 64.0567 14.8981 64.8142C16.2575 67.9106 17.5461 71.039 18.8208 74.1697C19.0863 74.8265 19.4546 75.0851 20.1618 75.1286C23.3131 75.3437 26.4576 75.6389 29.6089 75.8564C30.8982 75.9373 32.1451 76.3487 33.2294 77.051C35.8635 78.7216 38.5662 80.2801 41.2048 81.9416C41.8914 82.3695 42.3789 82.3398 43.0357 81.9278C45.907 80.1351 48.7997 78.3806 51.7138 76.6642C52.2947 76.3162 52.943 76.0954 53.6157 76.0165C57.0225 75.6824 60.4346 75.3948 63.8521 75.1538C64.6829 75.0943 65.1246 74.838 65.4541 74.0393C66.6853 70.9726 67.9578 67.9197 69.2943 64.8851C69.6441 64.0936 70.1528 63.3825 70.7888 62.7957C73.2513 60.5873 75.773 58.4475 78.311 56.3123C78.9381 55.7882 79.1716 55.3465 78.9542 54.4815C78.0983 51.1311 77.3293 47.7578 76.5741 44.3822C76.447 43.7947 76.447 43.1869 76.5741 42.5994C77.3361 39.1872 78.1188 35.7796 78.977 32.3903C79.1715 31.6213 78.977 31.2208 78.414 30.7494C75.8532 28.5913 73.2992 26.4218 70.8047 24.1882C70.1674 23.6033 69.6572 22.8937 69.3057 22.1033C67.9578 19.0436 66.6877 15.9495 65.4152 12.8554C65.1589 12.2283 64.8522 11.8942 64.1107 11.8461C61.0349 11.647 57.9662 11.3564 54.8927 11.139C53.4887 11.0749 52.1259 10.6441 50.9403 9.88943C48.4229 8.25771 45.7935 6.78618 43.2601 5.17734C42.4568 4.667 41.8868 4.60063 41.0354 5.14073C38.248 6.92349 35.3989 8.61014 32.552 10.2922C32.0112 10.6357 31.4035 10.8604 30.7692 10.9513C27.283 11.2931 23.7944 11.5883 20.3037 11.837C19.5256 11.8942 19.0953 12.123 18.7886 12.8874C17.546 15.9929 16.2714 19.0802 14.912 22.1399C14.5578 22.9297 14.0433 23.6373 13.4014 24.2179C10.9046 26.4492 8.36676 28.6211 5.78759 30.7723C5.2063 31.2574 5.07584 31.6877 5.2635 32.4246C6.04618 35.521 6.70762 38.6448 7.49259 41.7389C7.79241 42.8752 7.79241 44.0698 7.49259 45.206C6.671 48.4786 5.92947 51.7833 5.09186 55.3442Z" fill="white"/>
<path d="M56.2353 95.8997C56.2359 95.3032 56.4728 94.7313 56.8939 94.3088C57.3151 93.8864 57.8862 93.6479 58.4827 93.6455C59.0811 93.6541 59.653 93.8933 60.0793 94.3133C60.5057 94.7332 60.7536 95.3015 60.7712 95.8997C60.7713 96.2041 60.7105 96.5055 60.5927 96.7862C60.4748 97.0669 60.3023 97.3212 60.0849 97.5343C59.8675 97.7475 59.6098 97.9151 59.3268 98.0274C59.0439 98.1396 58.7413 98.1943 58.4369 98.1883C58.1412 98.1853 57.8491 98.1235 57.5776 98.0064C57.3061 97.8892 57.0607 97.7192 56.8557 97.5061C56.6507 97.293 56.4904 97.0412 56.3839 96.7654C56.2774 96.4895 56.2268 96.1953 56.2353 95.8997Z" fill="white"/>
<path d="M42.1325 72.9276C25.9274 72.9505 12.686 59.7571 12.6563 43.5543C12.6503 39.6825 13.4071 35.8474 14.8836 32.2681C16.3601 28.6888 18.5272 25.4355 21.2613 22.694C23.9954 19.9524 27.2429 17.7764 30.8181 16.2902C34.3934 14.804 38.2265 14.0368 42.0983 14.0322C58.3149 14.0139 71.5402 27.1913 71.5768 43.4033C71.6134 59.6679 58.4108 72.907 42.1325 72.9276ZM42.1028 18.6093C38.8315 18.6135 35.5931 19.2621 32.5725 20.5181C29.552 21.774 26.8084 23.6128 24.4985 25.9292C22.1887 28.2457 20.3578 30.9945 19.1104 34.0186C17.8631 37.0428 17.2238 40.283 17.2289 43.5543C17.2541 57.2351 28.4266 68.362 42.1281 68.3483C45.3994 68.3465 48.6384 67.6997 51.6597 66.445C54.6809 65.1903 57.425 63.3523 59.7352 61.0361C62.0455 58.7199 63.8764 55.971 65.1233 52.9466C66.3702 49.9221 67.0086 46.6815 67.002 43.4101C66.9791 29.7247 55.7974 18.5933 42.1028 18.6093Z" fill="white"/>
<path d="M47.5014 33.0885C48.0392 34.2602 48.5518 35.377 49.1034 36.6014C49.5611 36.6014 50.1607 36.6014 50.7625 36.6014C51.8725 36.6151 52.6574 37.3635 52.6437 38.3819C52.6299 39.4003 51.8518 40.096 50.7648 40.1097C50.1812 40.1097 49.5975 40.1097 49.1306 40.1097C48.6157 41.1922 48.2427 42.2747 47.6317 43.1992C45.9565 45.7372 43.5124 47.0211 40.4869 47.1263C39.5715 47.1584 38.6377 47.1263 37.601 47.1263C37.8139 47.3552 37.9398 47.4994 38.0748 47.6344C41.5305 51.0962 44.9854 54.5511 48.4396 57.9992C48.982 58.5393 49.2932 59.1434 49.0598 59.9147C48.9829 60.1886 48.8399 60.4393 48.6432 60.6448C48.4465 60.8503 48.2021 61.0042 47.9318 61.0929C47.6615 61.1815 47.3735 61.2023 47.0933 61.1532C46.8131 61.1042 46.5491 60.9869 46.3249 60.8118C46.1821 60.6971 46.0475 60.5724 45.9222 60.4387C41.3818 55.9029 36.8466 51.3609 32.3168 46.8128C31.9758 46.4677 31.7379 46.0341 31.6303 45.561C31.4312 44.5311 32.2986 43.634 33.4292 43.6295C35.6971 43.6157 37.965 43.6455 40.2306 43.618C42.5352 43.5906 44.1921 42.5195 45.1762 40.4278C45.2151 40.35 45.2379 40.263 45.2929 40.112H44.6566C40.9263 40.112 37.1961 40.112 33.4658 40.112C32.0927 40.112 31.2206 38.8716 31.7356 37.6839C32.0628 36.9355 32.674 36.6014 33.4841 36.6014C36.0259 36.6014 38.5676 36.6014 41.1094 36.6014H45.2929C44.7802 35.2031 43.9198 34.1687 42.5924 33.6263C41.7992 33.3088 40.9565 33.133 40.1025 33.1068C37.8735 33.0381 35.6421 33.1068 33.4108 33.0793C32.1064 33.0793 31.2596 31.8687 31.715 30.7038C31.8282 30.3917 32.0301 30.1194 32.2961 29.9206C32.562 29.7218 32.8803 29.605 33.2117 29.5848C33.3937 29.5706 33.5762 29.5668 33.7586 29.5733H50.4901C50.7456 29.5617 51.0016 29.5755 51.2544 29.6145C51.674 29.7006 52.0474 29.9377 52.3037 30.2808C52.56 30.6239 52.6814 31.0491 52.645 31.4759C52.6086 31.9026 52.4169 32.3011 52.1062 32.5958C51.7954 32.8905 51.3873 33.061 50.9592 33.0748C49.9729 33.1022 48.9843 33.0748 47.998 33.0748L47.5014 33.0885Z" fill="white"/>
</svg>
