<svg width="104" height="104" viewBox="0 0 104 104" fill="none" xmlns="http://www.w3.org/2000/svg">
<g filter="url(#filter0_d_59784_745)">
<circle cx="52" cy="52" r="42" fill="#0A0A5F"/>
</g>
<path d="M55.8296 40.0581C57.5531 40.3943 59.137 41.2372 60.3786 42.4789C61.6203 43.7206 62.4632 45.3045 62.7994 47.0279M55.8296 33C59.4103 33.3978 62.7493 35.0013 65.2984 37.5472C67.8476 40.0931 69.4552 43.4301 69.8575 47.0103M68.093 61.0912V66.3848C68.095 66.8762 67.9943 67.3626 67.7975 67.8129C67.6006 68.2631 67.3119 68.6673 66.9497 68.9995C66.5876 69.3317 66.1601 69.5847 65.6946 69.7421C65.2291 69.8996 64.7358 69.958 64.2464 69.9138C58.8166 69.3238 53.601 67.4684 49.0185 64.4967C44.7551 61.7876 41.1405 58.173 38.4314 53.9096C35.4493 49.3063 33.5935 44.0653 33.0143 38.6112C32.9702 38.1232 33.0282 37.6314 33.1846 37.1671C33.341 36.7028 33.5923 36.2762 33.9226 35.9143C34.2529 35.5525 34.655 35.2634 35.1031 35.0654C35.5513 34.8675 36.0358 34.765 36.5257 34.7645H41.8193C42.6756 34.7561 43.5058 35.0593 44.1551 35.6177C44.8044 36.1761 45.2285 36.9516 45.3483 37.7995C45.5718 39.4936 45.9861 41.1569 46.5835 42.7578C46.8209 43.3894 46.8723 44.0758 46.7315 44.7356C46.5908 45.3955 46.2639 46.0012 45.7895 46.4809L43.5485 48.7219C46.0604 53.1394 49.7181 56.7971 54.1356 59.309L56.3766 57.0681C56.8563 56.5937 57.462 56.2667 58.1219 56.126C58.7818 55.9853 59.4682 56.0366 60.0997 56.274C61.7006 56.8714 63.364 57.2858 65.058 57.5092C65.9152 57.6301 66.698 58.0619 67.2576 58.7223C67.8172 59.3827 68.1145 60.2258 68.093 61.0912Z" stroke="white" stroke-width="2" stroke-linecap="round" stroke-linejoin="round"/>
<defs>
<filter id="filter0_d_59784_745" x="0" y="0" width="104" height="104" filterUnits="userSpaceOnUse" color-interpolation-filters="sRGB">
<feFlood flood-opacity="0" result="BackgroundImageFix"/>
<feColorMatrix in="SourceAlpha" type="matrix" values="0 0 0 0 0 0 0 0 0 0 0 0 0 0 0 0 0 0 127 0" result="hardAlpha"/>
<feOffset/>
<feGaussianBlur stdDeviation="5"/>
<feComposite in2="hardAlpha" operator="out"/>
<feColorMatrix type="matrix" values="0 0 0 0 0 0 0 0 0 0 0 0 0 0 0 0 0 0 0.25 0"/>
<feBlend mode="normal" in2="BackgroundImageFix" result="effect1_dropShadow_59784_745"/>
<feBlend mode="normal" in="SourceGraphic" in2="effect1_dropShadow_59784_745" result="shape"/>
</filter>
</defs>
</svg>
