<svg width="196" height="64" viewBox="0 0 196 64" fill="#00000" xmlns="http://www.w3.org/2000/svg">
                    <path
                        d="M42.3115 1.70158L40.173 7.24034C40.173 7.24034 32.0264 3.48009 20.6975 8.63774C12.1435 12.4488 8.63032 21.57 8.63032 21.57L11.4053 22.2306L3.64052 28.5569L0 19.4866L2.8004 20.1726C2.8004 20.1726 5.54988 9.95891 17.8207 3.42927C30.0916 -3.10036 42.3115 1.70158 42.3115 1.70158Z"
                         />
                    <path
                        d="M76.9288 38.8465C73.11 38.8465 66.8473 38.8465 62.3158 38.8465C62.7231 37.3475 63.0032 35.7468 63.1559 34.0954C66.9492 34.0954 71.7862 34.0954 74.8412 34.0954C80.9512 34.0954 80.9512 28.0739 80.9512 28.0739H63.0541C62.8759 26.3716 62.5704 24.771 62.2139 23.3228C66.7455 23.3228 73.0846 23.3228 76.9288 23.3228C84.0316 23.3228 84.0316 16.7423 84.0316 16.7423H59.77C57.7588 12.7788 55.5948 10.7716 55.5948 10.7716L57.5296 8.63743L47.8046 7.54492L49.714 17.3521L51.6234 15.2179C51.6234 15.2179 58.0134 22.6368 57.326 31.9358C56.8932 38.3638 54.4492 43.2165 52.158 46.4432L41.16 35.6452C41.16 35.6452 44.826 35.6452 44.826 30.7924C44.826 25.9397 44.826 24.0596 44.826 21.1377C44.826 16.7931 41.16 16.7423 41.16 16.7423H19.8516C19.8516 16.7423 19.8516 32.698 19.8516 38.313C19.8516 46.1638 27.6927 46.1638 27.6927 46.1638V35.6198H32.7334L48.0592 50.9911L52.2089 55.2341C52.2089 55.2341 56.5113 51.5755 59.7445 45.427H84.0825C84.0316 45.4015 84.0316 38.8465 76.9288 38.8465ZM37.8759 28.1247C37.8759 28.6328 37.4686 29.0648 36.9594 29.0648H27.7945V23.2973H36.9594C37.4686 23.2973 37.8759 23.7293 37.8759 24.2374V28.1247Z"
                        />
                    <path
                        d="M123.423 16.7935C121.106 16.8443 118.993 18.1147 117.848 20.1218C117.237 21.1889 116.778 22.3577 116.473 23.5518L113.672 34.5277L110.49 21.6971H107.257H103.998L100.816 34.5277L98.0157 23.5518C97.7102 22.3322 97.2519 21.1889 96.641 20.1218C95.4953 18.1147 93.3823 16.8443 91.0656 16.7935L89.1562 16.7427L96.641 45.1479H104.584L107.232 34.7563L109.879 45.1479H117.822L125.307 16.7427L123.423 16.7935Z"
                        />
                    <path
                        d="M134.595 45.3257C130.343 45.3257 126.906 41.8957 126.906 37.6527V16.7427C131.158 16.7427 134.595 20.1726 134.595 24.4156V45.3257Z"
                       />
                    <path
                        d="M173.084 45.3257L166.567 35.0613C166.567 35.0613 170.131 35.0613 170.131 30.3355C170.131 25.6098 170.131 23.8059 170.131 20.9603C170.131 16.7427 166.567 16.6919 166.567 16.6919H145.742C145.742 16.6919 145.742 32.1903 145.742 37.6782C145.742 45.3257 153.405 45.3257 153.405 45.3257V35.0867H158.319L162.392 41.2352C164.072 43.8013 166.949 45.3257 170.029 45.3257H173.084ZM163.385 27.7948C163.385 28.303 162.977 28.7095 162.494 28.7095H153.558V23.0945H162.494C163.003 23.0945 163.385 23.501 163.385 24.0092V27.7948Z"
                        />
                    <path
                        d="M188.75 38.7961H180.858C180.298 38.7961 179.84 38.3388 179.84 37.7798V35.0612C179.84 34.5023 180.298 34.0449 180.858 34.0449H186.663C192.773 34.0449 192.773 28.0235 192.773 28.0235H180.884C180.323 28.0235 179.865 27.5661 179.865 27.0072V24.314C179.865 23.7551 180.323 23.2977 180.884 23.2977H188.75C195.853 23.2977 195.853 16.7173 195.853 16.7173H179.865H178.49C175.181 16.7173 172.508 19.385 172.508 22.688V39.4313C172.508 42.7342 175.181 45.4019 178.49 45.4019H179.865H195.878C195.853 45.3765 195.853 38.7961 188.75 38.7961Z"
                        />
                    <path
                        d="M86.6596 33.2829C87.7704 33.2829 88.6708 32.3842 88.6708 31.2757C88.6708 30.1672 87.7704 29.2686 86.6596 29.2686C85.5489 29.2686 84.6484 30.1672 84.6484 31.2757C84.6484 32.3842 85.5489 33.2829 86.6596 33.2829Z"
                        />
                    <path
                        d="M140.191 33.2829C141.302 33.2829 142.202 32.3842 142.202 31.2757C142.202 30.1672 141.302 29.2686 140.191 29.2686C139.08 29.2686 138.18 30.1672 138.18 31.2757C138.18 32.3842 139.08 33.2829 140.191 33.2829Z"
                       />
                    <path
                        d="M0.640625 36.0523L6.52146 35.1377C6.52146 35.1377 7.28521 44.0556 17.443 51.2966C25.0041 56.81 34.6782 55.311 34.6782 55.311L33.8635 52.567L43.2321 56.124L37.1731 63.7969L36.3584 61.0276C36.3584 61.0276 26.1242 63.7461 14.3117 56.3526C2.49907 48.9592 0.640625 36.0523 0.640625 36.0523Z"
                        />
                </svg>
