<svg width="104" height="104" viewBox="0 0 104 104" fill="none" xmlns="http://www.w3.org/2000/svg">
<g clip-path="url(#clip0_60859_493)">
<path d="M36.2725 40.1301C31.4638 39.6251 27.3396 37.9305 23.5089 35.3562C19.4386 38.5901 16.2116 42.7603 14.1033 47.511C14.0538 47.6359 14.0298 47.7694 14.0326 47.9037C14.0354 48.038 14.0649 48.1704 14.1195 48.2931C15.391 50.5579 16.744 52.7737 17.9829 55.0548C18.7001 56.3746 19.6782 57.2218 21.1616 57.564C22.1028 57.8089 23.0153 58.153 23.8838 58.5904C26.0682 59.6495 26.981 61.5721 26.2475 63.8858C25.6932 65.6617 24.8782 67.3562 24.1446 69.0833C23.9202 69.6537 23.6589 70.2088 23.3622 70.7452C22.2211 72.7656 22.0418 74.5904 23.3296 76.7737C24.9434 79.4947 25.3509 82.623 24.9597 85.7839C24.8782 86.4519 24.976 86.8755 25.5954 87.2014C27.4374 88.179 29.2631 89.2055 31.1214 90.1668C32.2299 90.7534 32.6211 91.454 32.1973 92.3827C31.7735 93.3114 31.0073 93.4743 29.8826 92.9693C17.771 87.4621 10.4192 78.2075 8.67504 64.9774C7.06125 52.7086 11.218 42.346 20.3628 33.9876L20.8682 33.5151C20.7445 33.3423 20.6083 33.179 20.4606 33.0263C14.6901 28.0894 10.3867 22.0283 6.93085 15.3318C6.49072 14.4845 6.55592 13.7187 7.28946 13.0833C14.5108 6.94074 22.4004 2.08533 31.9039 0.407124C40.576 -1.10815 47.9929 1.61282 54.5459 7.20141C55.2957 7.85314 55.3446 8.70042 54.7252 9.38474C54.1058 10.0691 53.3396 10.1179 52.5246 9.44989C49.9979 7.36435 47.292 5.58838 44.2111 4.43156C41.9453 3.58431 39.6142 3.04666 37.0224 3.07925C37.1943 3.38919 37.3848 3.68845 37.5929 3.97538C41.5703 9.41733 45.5641 14.8593 49.5741 20.3012C49.786 20.5945 50.0957 20.9855 50.4055 21.0507C54.8556 21.9631 59.3221 22.8267 63.7722 23.6902L63.9841 23.4621C62.3214 21.0833 60.6751 18.6882 59.0124 16.2931C58.882 16.1138 58.7352 15.9509 58.6048 15.788C57.8387 14.7778 57.855 13.9469 58.6537 13.344C59.4525 12.7412 60.2186 12.9204 60.9685 13.8654C61.7183 14.8104 62.5659 15.8369 63.2343 16.8959C64.734 19.2421 65.8913 21.8491 67.6681 23.9346C69.4449 26.0202 71.8249 27.568 73.9277 29.3766C74.5471 29.9143 75.134 30.5008 75.786 31.12C75.6393 29.9794 75.46 28.8715 75.3459 27.7636C74.5634 20.7575 76.8619 14.9733 82.2901 10.4764C86.561 6.94074 91.5001 4.74114 96.8142 3.25845C97.8249 2.98146 98.4932 3.29105 98.9822 4.17089C101.705 9.17292 103.628 14.4193 103.97 20.1546C104.362 26.7045 101.933 32.065 96.8794 36.2361C93.2769 39.234 89.1528 41.2381 84.7352 42.7371L83.5127 43.1607C83.6594 43.5518 83.7735 43.9102 83.9039 44.2686C94.0268 69.0344 78.9973 97.4336 52.8017 103.006C29.4424 107.975 6.80043 93.7187 1.17661 70.4356C-0.150019 64.9772 -0.34971 59.3058 0.58976 53.7676C0.785372 52.5782 1.35593 52.0894 2.36659 52.2523C3.37725 52.4153 3.75217 53.1159 3.58916 54.289C0.68759 73.955 11.7885 92.3012 30.502 98.8023C53.4863 106.77 78.9158 92.122 83.2029 68.1872C86.1045 51.9591 80.7415 38.6638 68.0105 28.2849C67.7334 28.0568 67.4236 27.8613 67.1628 27.6821C67.0698 27.7042 66.9814 27.7428 66.902 27.7961L62.8594 31.0059L63.6255 31.5925C74.5309 39.6251 79.6656 50.4112 78.5898 63.902C77.302 80.1138 64.1472 93.5395 47.9277 95.3807C45.3522 95.674 42.744 95.5762 40.1522 95.5273C39.5816 95.511 38.7992 95.0548 38.5221 94.5823C37.9026 93.5395 38.7992 92.4804 40.1033 92.4967C41.7986 92.5456 43.4939 92.6434 45.1892 92.5945C59.7948 92.1057 72.7704 80.7004 75.1992 66.2809C75.9402 62.0577 75.8572 57.7312 74.9547 53.5395C72.265 55.0711 69.6243 56.4723 67.8964 59.0303C66.5271 61.067 66.8694 63.3644 67.0487 65.6454C67.2117 67.5029 67.7333 69.458 67.3421 71.2014C66.1195 76.4641 62.7127 80.0161 57.6105 81.7432C54.5459 82.7859 52.0029 81.3848 51.1227 78.2727C50.6397 76.4634 50.3662 74.6047 50.3076 72.733C50.1283 69.0507 50.2098 65.3684 50.0305 61.6862C49.9001 58.5741 49.5578 58.4112 46.4606 58.8023C44.0318 59.0955 41.5866 59.5191 39.1578 59.4377C33.6481 59.2422 29.8989 54.4845 30.6487 48.9937C31.1051 45.6861 32.8657 43.177 35.2619 41.01C35.5227 40.7656 35.7998 40.5375 36.2725 40.1301ZM74.0907 50.4438C71.8738 43.6006 67.1791 37.5395 61.1152 33.5477C60.3327 33.0263 59.7622 32.9611 58.9145 33.4988C53.9753 36.5782 48.7265 38.8756 42.9233 39.8206C42.4506 39.9021 41.8963 39.9672 41.5051 40.2116C40.5108 40.8145 39.5816 41.4988 38.6688 42.1831C36.5823 43.7473 34.7729 45.5395 33.9578 48.0975C32.5559 52.4967 35.4249 56.4886 39.9892 56.4723C40.9326 56.4591 41.8744 56.3884 42.8092 56.2605C44.6675 56.0324 46.5095 55.7228 48.3842 55.4947C50.2588 55.2666 51.3835 56.1139 52.1334 57.6454C52.492 58.3623 52.8017 59.1444 52.8506 59.9102C53.0625 63.3643 53.144 66.8185 53.307 70.2727C53.4048 72.3583 53.47 74.4601 53.7635 76.513C54.1058 78.9082 55.4261 79.5599 57.6431 78.5497C60.7891 77.1322 62.9572 74.7534 64.1634 71.5273C64.4405 70.7778 64.4895 69.898 64.4569 69.0996C64.408 67.9917 64.1634 66.8837 64.0004 65.7758C63.1365 60.4641 64.8481 56.2605 69.445 53.344L74.0907 50.4438ZM32.6374 36.3664C36.4844 37.4092 40.1521 37.344 43.7873 36.5619C50.813 35.0467 56.8932 31.5925 62.5822 27.3399C62.7942 27.177 62.9735 26.9815 63.2017 26.7697C63.0756 26.7099 62.9448 26.6609 62.8105 26.623C58.5722 25.7921 54.3177 24.9448 50.0631 24.1464C49.6882 24.0813 49.1666 24.2931 48.808 24.5375C46.428 26.232 44.0807 27.9754 41.7334 29.7024L32.6374 36.3664ZM22.0092 84.2524C21.9766 81.4499 21.3246 78.957 19.9064 76.7086C19.5067 76.105 19.2543 75.4162 19.1694 74.6974C19.0845 73.9787 19.1694 73.2501 19.4173 72.5701C19.9064 71.1363 20.5421 69.7676 21.1289 68.3664C21.8299 66.6719 22.5961 65.01 23.2807 63.2992C23.6719 62.3542 23.3459 61.6047 22.3515 61.2299C21.6832 60.9693 21.0149 60.6597 20.3302 60.4967C17.9829 59.9591 16.3528 58.5904 15.2932 56.456C14.6412 55.1688 13.9239 53.9142 13.223 52.6597C13.06 52.3501 12.8644 52.0731 12.6525 51.6984C9.21296 62.8756 13.0437 76.7086 22.0092 84.2524ZM45.287 23.3155C45.1231 23.2297 44.9544 23.1535 44.7816 23.0874C40.9998 22.3542 37.218 21.5884 33.4199 20.9041C33.0124 20.8226 32.4418 21.0344 32.0669 21.3114C28.7252 23.7065 25.4324 26.1505 22.107 28.5782L20.9986 29.4255C23.2012 31.5113 25.6738 33.2923 28.3503 34.7208C28.986 35.0466 29.4098 34.9815 29.9804 34.5579C33.8274 31.6902 37.707 28.8715 41.5703 26.0365L45.287 23.3155ZM45.6619 20.1546L44.8468 19.0304L35.5064 6.28901C34.7566 5.29512 34.1371 3.76355 33.159 3.47027C32.181 3.17699 30.502 3.76355 29.1816 4.122C27.8613 4.48045 26.2964 5.06699 24.7315 5.57209C27.4863 9.31954 30.1108 12.8389 32.6537 16.4234C33.371 17.4173 34.1534 17.9876 35.4086 18.1994C38.734 18.7371 42.0431 19.454 45.6619 20.1546ZM84.6374 39.3318L84.833 39.5436C86.2186 38.9407 87.6205 38.3868 88.9735 37.7187C92.5271 35.9428 95.7546 33.7432 98.1509 30.4845C99.5975 28.5345 100.498 26.2341 100.759 23.8206C97.4499 25.1892 94.2876 26.5741 91.06 27.7798C89.6255 28.3175 88.7942 29.1322 88.2562 30.566C87.1478 33.5314 85.8437 36.4153 84.6374 39.3318ZM81.6054 38.3705C81.6804 38.2986 81.7512 38.2224 81.8174 38.1424C83.1703 34.9163 84.5233 31.7065 85.8274 28.4641C85.9741 28.1383 85.86 27.6332 85.7133 27.2748C84.3277 23.8369 82.8932 20.4153 81.4751 16.9937C81.3773 16.7493 81.2468 16.5212 81.1164 16.2605C76.7152 21.5721 77.8236 30.8593 81.6054 38.3705ZM18.6023 27.3725L28.6926 19.9591L11.2669 16.57L10.9898 16.8796L18.6023 27.3725ZM87.702 24.065C90.1145 18.2971 92.4293 12.79 94.8255 7.03848C90.4406 8.66781 86.6262 10.5742 83.3823 13.5884L87.702 24.065ZM29.312 16.9774C26.7854 13.5232 24.3729 10.2483 21.9277 6.89186C18.2478 8.73106 14.7727 10.9538 11.5603 13.5232L29.312 16.9774ZM97.6293 8.26048L90.7829 24.6352C94.2061 23.2177 97.3684 21.9306 100.515 20.5945C100.694 20.5293 100.889 20.1546 100.873 19.9428C100.58 15.9021 99.4061 12.1057 97.6293 8.26048Z" fill="white"/>
</g>
<defs>
<clipPath id="clip0_60859_493">
<rect width="104" height="104" fill="white"/>
</clipPath>
</defs>
</svg>
