<svg width="119" height="118" viewBox="0 0 119 118" fill="none" xmlns="http://www.w3.org/2000/svg">
<path d="M46.5227 19.1859C45.5619 11.8914 42.0191 6.22286 35.5244 2.60206C30.9848 0.0701514 26.1186 -0.565837 21.0314 0.484508C11.0539 2.54424 3.97788 11.7661 4.3838 22.2165C4.75849 32.0936 12.7568 40.7036 22.3596 42.161C32.3418 43.6739 45.132 36.837 46.5827 23.1537C47.0463 20.535 46.5227 19.1859 46.5227 19.1859ZM25.5854 38.4921C23.3141 38.5032 21.0629 38.0654 18.9603 37.2038C16.8578 36.3422 14.945 35.0737 13.3313 33.4706C11.7176 31.8675 10.4346 29.9613 9.5555 27.8609C8.67636 25.7604 8.2183 23.5068 8.2076 21.2288C8.18598 11.7034 15.8936 3.90054 25.3571 3.85958C29.9433 3.83781 34.3503 5.64406 37.6088 8.88103C40.8672 12.118 42.7103 16.5206 42.7325 21.1204C42.7493 30.6458 35.044 38.4511 25.5854 38.4921Z" fill="white"/>
<path d="M45.6746 15.8737C46.3063 16.5217 46.1358 17.9551 46.3328 19.1235H57.5952C57.5952 18.4754 57.5832 17.8467 57.5952 17.2179C57.6745 14.05 60.0908 11.5229 63.2277 11.5133C73.5383 11.4747 83.848 11.4747 94.157 11.5133C97.2434 11.5133 99.6813 14.0139 99.7822 17.1023C99.8062 17.7407 99.7822 18.3791 99.7822 19.1933C101.704 19.1933 103.56 19.1933 105.422 19.1933C108.518 19.1933 111.326 20.1039 113.761 22.0408C117.088 24.6908 118.868 28.1646 118.945 32.419C119.029 36.9456 119 41.477 118.964 46.006C118.901 53.6813 113.069 59.5473 105.422 59.5882C97.6301 59.6316 89.8384 59.5882 82.0466 59.5882H80.6055C80.6055 60.2989 80.6175 60.9277 80.6055 61.554C80.5238 64.7219 78.1099 67.2538 74.9754 67.2659C64.6633 67.306 54.3527 67.306 44.0437 67.2659C40.9068 67.2659 38.4905 64.7243 38.4137 61.5588C38.3993 60.9614 38.4137 60.3543 38.4137 59.5882H37.0951C29.4234 59.5882 21.7517 59.5882 14.08 59.5882C7.92878 59.5882 3.89126 63.6547 3.88406 69.8411C3.88406 74.6111 3.88406 79.381 3.88406 84.1509C3.89607 90.0868 7.99129 94.199 13.9024 94.2207C15.6173 94.2207 17.3322 94.2207 19.2297 94.2207C19.2297 93.5486 19.2177 92.9271 19.2297 92.3055C19.297 89.0726 21.7229 86.5479 24.9271 86.5383C35.1976 86.5077 45.4673 86.5077 55.7362 86.5383C58.8851 86.5383 61.3254 89.0437 61.4215 92.1947C61.4407 92.8259 61.4215 93.4595 61.4215 94.1557H76.8152C77.776 86.8587 81.3188 81.1926 87.8135 77.5718C92.3531 75.0399 97.2194 74.4039 102.309 75.4542C112.284 77.514 119.363 86.7334 118.954 97.1863C118.58 107.063 110.584 115.673 100.981 117.128C90.9961 118.644 78.2059 111.807 76.7551 98.1234H61.4239C61.4239 98.8075 61.4431 99.4749 61.4239 100.14C61.3183 103.228 58.8971 105.734 55.813 105.746C45.5041 105.786 35.1952 105.786 24.8862 105.746C21.7446 105.746 19.3186 103.214 19.237 100.055C19.2202 99.4556 19.237 98.8509 19.237 98.068C17.9808 98.068 16.7582 98.0415 15.5381 98.068C12.7999 98.1354 10.1098 97.9812 7.61181 96.6731C2.88727 94.2038 0.266799 90.2964 0.101068 84.97C-0.0646629 79.6845 0.00970675 74.3894 0.0697542 69.0992C0.0907108 65.554 1.51091 62.1616 4.01952 59.664C6.52812 57.1664 9.92097 55.7672 13.4556 55.7723C21.2882 55.7145 29.1207 55.7579 36.9533 55.7579H38.4137C38.4137 55.0616 38.4137 54.4377 38.4137 53.8113C38.4857 50.5856 40.9237 48.0826 44.1399 48.073C54.3704 48.0441 64.5999 48.0441 74.8288 48.073C78.1074 48.073 80.5429 50.5808 80.5934 53.8836C80.6054 54.4449 80.5934 55.0038 80.5934 55.7603H81.8857C89.5958 55.7603 97.3074 55.7603 105.021 55.7603C111.025 55.7603 115.109 51.6649 115.121 45.6423C115.13 41.4345 115.13 37.2259 115.121 33.0164C115.099 27.1697 110.977 23.0671 105.126 23.0454C103.409 23.0454 101.692 23.0454 99.7774 23.0454C99.7774 23.6982 99.7894 24.3198 99.7774 24.9389C99.7101 28.2297 97.2675 30.7206 93.9793 30.7206C83.7904 30.7463 73.6008 30.7463 63.4103 30.7206C60.0621 30.7206 57.6313 28.2104 57.5832 24.8353C57.5832 24.2812 57.5832 23.7272 57.5832 23.1032H46.1166C46.1166 23.9801 46.1887 24.8546 46.083 25.7098C46.0416 25.9118 45.9554 26.1019 45.8306 26.2658C45.7058 26.4297 45.5458 26.5633 45.3624 26.6566L45.6746 15.8737ZM80.603 96.095C80.5838 105.62 88.2891 113.426 97.7502 113.467C100.021 113.478 102.273 113.04 104.375 112.178C106.478 111.317 108.39 110.048 110.004 108.445C111.618 106.842 112.901 104.936 113.78 102.835C114.659 100.735 115.117 98.4814 115.128 96.2034C115.15 86.678 107.442 78.8727 97.9784 78.8341C93.3927 78.8149 88.9871 80.6233 85.7305 83.8616C82.4739 87.0998 80.6329 91.5028 80.6126 96.1022L80.603 96.095ZM78.6262 26.8806C83.6222 26.8806 88.6158 26.8806 93.6117 26.8806C95.2522 26.8806 95.9343 26.1844 95.9439 24.5366C95.9584 22.2512 95.9584 19.9666 95.9439 17.6829C95.9439 16.0351 95.2499 15.3461 93.6046 15.3437C83.6527 15.3437 73.7032 15.3437 63.7562 15.3437C62.1133 15.3437 61.4335 16.0375 61.4239 17.6901C61.4095 19.8944 61.4239 22.0986 61.4239 24.3029C61.4239 26.2663 62.0412 26.883 64.0035 26.8854C68.8842 26.8902 73.7616 26.891 78.6359 26.8878L78.6262 26.8806ZM59.3799 63.4403C64.4238 63.4403 69.451 63.4403 74.4854 63.4403C76.0491 63.4403 76.7504 62.7176 76.76 61.1589C76.776 58.835 76.776 56.5103 76.76 54.1847C76.76 52.6141 76.0515 51.9058 74.4854 51.9034C64.4951 51.9034 54.5056 51.9034 44.5169 51.9034C42.9509 51.9034 42.2543 52.6141 42.2423 54.1847C42.2255 56.4276 42.2423 58.6728 42.2423 60.918C42.2423 62.8019 42.8812 63.4403 44.7595 63.4427C49.6385 63.4491 54.5152 63.4507 59.3895 63.4475L59.3799 63.4403ZM40.4241 90.3783C35.4682 90.3783 30.513 90.3783 25.5587 90.3783C23.7333 90.3783 23.0656 91.0263 23.0584 92.7873C23.0584 95.0735 23.044 97.3645 23.0584 99.6435C23.0584 101.205 23.7789 101.908 25.3474 101.908C35.3377 101.918 45.3272 101.918 55.3159 101.908C56.8723 101.908 57.5665 101.185 57.5761 99.6122C57.5929 97.3669 57.5761 95.1217 57.5761 92.8668C57.5761 90.995 56.9299 90.3614 55.042 90.359L40.4241 90.3783Z" fill="white"/>
<path d="M106.431 87.4976L108.113 89.1695C108.18 89.2367 108.234 89.3166 108.271 89.4047C108.307 89.4927 108.326 89.5872 108.326 89.6826C108.326 89.778 108.307 89.8725 108.271 89.9605C108.234 90.0486 108.18 90.1286 108.113 90.1957L92.6014 105.753C92.4662 105.889 92.2831 105.965 92.0921 105.965C91.9012 105.965 91.718 105.889 91.5829 105.753L87.6486 101.786C87.5801 101.717 87.5262 101.635 87.4899 101.545C87.4537 101.455 87.4358 101.358 87.4376 101.261C87.4394 101.164 87.4608 101.068 87.5004 100.98C87.5399 100.891 87.5968 100.811 87.6678 100.745L89.2772 99.2417C89.3518 99.1756 89.4389 99.1253 89.5334 99.0939C89.6279 99.0625 89.7278 99.0506 89.827 99.0589C89.9262 99.0672 90.0226 99.0956 90.1106 99.1424C90.1985 99.1891 90.2762 99.2532 90.3388 99.3308L91.3259 100.535C91.3899 100.614 91.4695 100.677 91.5597 100.723C91.6498 100.768 91.7484 100.794 91.8491 100.799C91.9499 100.804 92.0506 100.787 92.1445 100.751C92.2385 100.714 92.3238 100.658 92.3948 100.586L105.413 87.5072C105.547 87.3706 105.729 87.2929 105.92 87.291C106.111 87.2892 106.295 87.3635 106.431 87.4976Z" fill="white"/>
<path d="M68.3143 19.2754H66.0878C65.6898 19.2754 65.3672 19.599 65.3672 19.9981V22.2939C65.3672 22.6931 65.6898 23.0166 66.0878 23.0166H68.3143C68.7123 23.0166 69.0349 22.6931 69.0349 22.2939V19.9981C69.0349 19.599 68.7123 19.2754 68.3143 19.2754Z" fill="white"/>
<path d="M75.967 19.248H73.7284C73.3304 19.248 73.0078 19.5716 73.0078 19.9708V22.2666C73.0078 22.6657 73.3304 22.9893 73.7284 22.9893H75.967C76.3649 22.9893 76.6875 22.6657 76.6875 22.2666V19.9708C76.6875 19.5716 76.3649 19.248 75.967 19.248Z" fill="white"/>
<path d="M83.6592 19.2725H81.3846C80.9867 19.2725 80.6641 19.596 80.6641 19.9952V22.2549C80.6641 22.654 80.9867 22.9776 81.3846 22.9776H83.6592C84.0572 22.9776 84.3798 22.654 84.3798 22.2549V19.9952C84.3798 19.596 84.0572 19.2725 83.6592 19.2725Z" fill="white"/>
<path d="M91.3221 19.2871H89.0331C88.6351 19.2871 88.3125 19.6107 88.3125 20.0098V22.243C88.3125 22.6422 88.6351 22.9657 89.0331 22.9657H91.3221C91.72 22.9657 92.0426 22.6422 92.0426 22.243V20.0098C92.0426 19.6107 91.72 19.2871 91.3221 19.2871Z" fill="white"/>
<path d="M49.1448 55.8184H46.8846C46.4867 55.8184 46.1641 56.1419 46.1641 56.5411V58.8297C46.1641 59.2288 46.4867 59.5524 46.8846 59.5524H49.1448C49.5428 59.5524 49.8654 59.2288 49.8654 58.8297V56.5411C49.8654 56.1419 49.5428 55.8184 49.1448 55.8184Z" fill="white"/>
<path d="M56.8011 55.7969H54.5409C54.1429 55.7969 53.8203 56.1204 53.8203 56.5196V58.8082C53.8203 59.2073 54.1429 59.5309 54.5409 59.5309H56.8011C57.199 59.5309 57.5216 59.2073 57.5216 58.8082V56.5196C57.5216 56.1204 57.199 55.7969 56.8011 55.7969Z" fill="white"/>
<path d="M64.4681 55.8418H62.2128C61.8148 55.8418 61.4922 56.1654 61.4922 56.5645V58.8049C61.4922 59.2041 61.8148 59.5276 62.2128 59.5276H64.4681C64.8661 59.5276 65.1887 59.2041 65.1887 58.8049V56.5645C65.1887 56.1654 64.8661 55.8418 64.4681 55.8418Z" fill="white"/>
<path d="M72.1286 55.7744H69.9237C69.5257 55.7744 69.2031 56.098 69.2031 56.4971V58.793C69.2031 59.1921 69.5257 59.5157 69.9237 59.5157H72.1286C72.5266 59.5157 72.8492 59.1921 72.8492 58.793V56.4971C72.8492 56.098 72.5266 55.7744 72.1286 55.7744Z" fill="white"/>
<path d="M29.9705 94.3291H27.6815C27.2835 94.3291 26.9609 94.6527 26.9609 95.0518V97.285C26.9609 97.6841 27.2835 98.0077 27.6815 98.0077H29.9705C30.3685 98.0077 30.6911 97.6841 30.6911 97.285V95.0518C30.6911 94.6527 30.3685 94.3291 29.9705 94.3291Z" fill="white"/>
<path d="M37.6088 94.3242H35.3534C34.9554 94.3242 34.6328 94.6478 34.6328 95.0469V97.3018C34.6328 97.7009 34.9554 98.0245 35.3534 98.0245H37.6088C38.0067 98.0245 38.3293 97.7009 38.3293 97.3018V95.0469C38.3293 94.6478 38.0067 94.3242 37.6088 94.3242Z" fill="white"/>
<path d="M45.2999 94.2832H43.0565C42.6585 94.2832 42.3359 94.6068 42.3359 95.0059V97.2608C42.3359 97.6599 42.6585 97.9835 43.0565 97.9835H45.2999C45.6978 97.9835 46.0204 97.6599 46.0204 97.2608V95.0059C46.0204 94.6068 45.6978 94.2832 45.2999 94.2832Z" fill="white"/>
<path d="M52.9742 94.3076H50.7284C50.3304 94.3076 50.0078 94.6312 50.0078 95.0303V97.3045C50.0078 97.7036 50.3304 98.0272 50.7284 98.0272H52.9742C53.3721 98.0272 53.6947 97.7036 53.6947 97.3045V95.0303C53.6947 94.6312 53.3721 94.3076 52.9742 94.3076Z" fill="white"/>
<path d="M37.0811 21.2389C37.029 24.2701 35.7894 27.1588 33.6305 29.2806C31.4715 31.4023 28.5666 32.5864 25.544 32.5769C22.5214 32.5674 19.6241 31.3651 17.4784 29.2298C15.3328 27.0946 14.1113 24.1981 14.0781 21.1667C14.1069 14.8381 19.3407 9.62009 25.6313 9.64658C28.6802 9.6676 31.5967 10.8991 33.7425 13.0717C35.8883 15.2442 37.0888 18.1808 37.0811 21.2389ZM25.6361 28.8756C27.6695 28.8731 29.6185 28.0604 31.0545 26.6165C32.4906 25.1726 33.2959 23.2157 33.2933 21.1763C33.2908 19.1369 32.4806 17.182 31.0409 15.7417C29.6013 14.3014 27.6502 13.4937 25.6168 13.4962C23.5811 13.5101 21.6323 14.3262 20.1912 15.7684C18.7501 17.2107 17.9321 19.1634 17.9139 21.2052C17.9241 23.2493 18.7434 25.2057 20.1915 26.6441C21.6396 28.0826 23.598 28.8852 25.6361 28.8756Z" fill="white"/>
</svg>
