<svg width="197" height="68" viewBox="0 0 197 68" fill="none" xmlns="http://www.w3.org/2000/svg">
<path d="M65.402 62.6137C65.3256 62.6137 65.2747 62.5883 65.2492 62.5375L64.2309 60.886H63.7726V62.4867C63.7726 62.5629 63.7217 62.6137 63.6453 62.6137H62.7289C62.6525 62.6137 62.6016 62.5629 62.6016 62.4867V57.5831C62.6016 57.5069 62.6525 57.4561 62.7289 57.4561H64.4855C65.7075 57.4561 66.4203 58.1166 66.4203 59.2091C66.4203 59.9714 66.0384 60.4795 65.3765 60.7336L66.5476 62.4867C66.5985 62.5629 66.573 62.6391 66.4712 62.6391H65.402V62.6137ZM63.7726 58.4977V59.8697H64.46C64.9946 59.8697 65.2238 59.6665 65.2238 59.1837C65.2238 58.7264 64.9946 58.4977 64.46 58.4977H63.7726Z" fill="white"/>
<path d="M70.4737 61.5461H72.6377C72.7141 61.5461 72.765 61.5969 72.765 61.6732V62.4608C72.765 62.537 72.7141 62.5878 72.6377 62.5878H69.4554C69.379 62.5878 69.3281 62.537 69.3281 62.4608V57.5572C69.3281 57.481 69.379 57.4302 69.4554 57.4302H72.5359C72.6122 57.4302 72.6631 57.481 72.6631 57.5572V58.3448C72.6631 58.4211 72.6122 58.4719 72.5359 58.4719H70.4992V59.4627H72.3067C72.3831 59.4627 72.434 59.5136 72.434 59.5898V60.3774C72.434 60.4536 72.3831 60.5044 72.3067 60.5044H70.4992V61.5461H70.4737Z" fill="white"/>
<path d="M77.4719 62.69C76.4026 62.69 75.5625 62.0802 75.5625 60.9115V59.133C75.5625 57.9389 76.4026 57.3291 77.4464 57.3291C77.981 57.3291 78.5411 57.507 78.9994 57.8372C79.0503 57.8626 79.0503 57.9135 79.0248 57.9389L78.7957 58.2692C78.7702 58.32 78.7193 58.32 78.6684 58.2946C78.312 58.0405 77.8792 57.9135 77.4464 57.9135C76.6318 57.9135 76.1735 58.3962 76.1735 59.133V60.8861C76.1735 61.6229 76.6318 62.1056 77.4464 62.1056C77.9301 62.1056 78.3884 61.9532 78.7702 61.6483C78.7957 61.6229 78.8466 61.6229 78.8721 61.6737L79.1012 62.004C79.1267 62.0548 79.1267 62.0802 79.0757 62.131C78.6684 62.5121 78.0574 62.69 77.4719 62.69Z" fill="white"/>
<path d="M83.1983 62.6142C83.1474 62.6142 83.1219 62.5888 83.1219 62.538V60.6578L81.4162 57.5582C81.3908 57.5074 81.4162 57.4565 81.4672 57.4565H82.0018C82.0527 57.4565 82.0782 57.482 82.1036 57.5074L83.4529 60.0989L84.7767 57.5074C84.8022 57.4565 84.8276 57.4565 84.8785 57.4565H85.4132C85.4895 57.4565 85.4895 57.5074 85.4641 57.5582L83.7584 60.6832V62.5634C83.7584 62.6142 83.7329 62.6396 83.682 62.6396H83.1983V62.6142Z" fill="white"/>
<path d="M89.8156 62.69C88.7464 62.69 87.9062 62.0802 87.9062 60.9115V59.133C87.9062 57.9389 88.7464 57.3291 89.7902 57.3291C90.3248 57.3291 90.8849 57.507 91.3431 57.8372C91.394 57.8626 91.394 57.9135 91.3686 57.9389L91.1395 58.2692C91.114 58.32 91.0631 58.32 91.0122 58.2946C90.6557 58.0405 90.223 57.9135 89.7902 57.9135C88.9755 57.9135 88.5173 58.3962 88.5173 59.133V60.8861C88.5173 61.6229 88.9755 62.1056 89.7902 62.1056C90.2739 62.1056 90.7321 61.9532 91.114 61.6483C91.1395 61.6229 91.1904 61.6229 91.2158 61.6737L91.445 62.004C91.4704 62.0548 91.4704 62.0802 91.4195 62.131C90.9867 62.5121 90.3757 62.69 89.8156 62.69Z" fill="white"/>
<path d="M94.4436 62.6142C94.3926 62.6142 94.3672 62.5888 94.3672 62.538V57.5328C94.3672 57.482 94.3926 57.4565 94.4436 57.4565H94.9018C94.9527 57.4565 94.9782 57.482 94.9782 57.5328V62.0552H97.244C97.2949 62.0552 97.3203 62.0806 97.3203 62.1314V62.538C97.3203 62.5888 97.2949 62.6142 97.244 62.6142H94.4436Z" fill="white"/>
<path d="M100.713 62.0289H103.207C103.258 62.0289 103.284 62.0543 103.284 62.1051V62.5116C103.284 62.5624 103.258 62.5878 103.207 62.5878H100.178C100.127 62.5878 100.102 62.5624 100.102 62.5116V57.5064C100.102 57.4556 100.127 57.4302 100.178 57.4302H103.106C103.157 57.4302 103.182 57.4556 103.182 57.5064V57.9129C103.182 57.9637 103.157 57.9891 103.106 57.9891H100.713V59.6914H102.927C102.978 59.6914 103.004 59.7168 103.004 59.7676V60.1742C103.004 60.225 102.978 60.2504 102.927 60.2504H100.713V62.0289Z" fill="white"/>
<path d="M110.212 62.6392C109.983 62.6392 109.805 62.4613 109.805 62.2327C109.805 62.004 109.957 61.8262 110.212 61.8262C110.441 61.8262 110.619 62.004 110.619 62.2327C110.594 62.4613 110.441 62.6392 110.212 62.6392Z" fill="white"/>
<path d="M118.308 62.6133C118.231 62.6133 118.18 62.5878 118.155 62.5116L116.78 57.5826C116.755 57.5064 116.806 57.4302 116.882 57.4302H117.849C117.926 57.4302 117.977 57.4556 117.977 57.5572L118.384 59.2087C118.511 59.6914 118.689 60.6569 118.791 61.2667H118.817C118.919 60.6315 119.122 59.7931 119.3 59.1833L119.733 57.6334C119.759 57.5572 119.81 57.5318 119.886 57.5318H120.853C120.93 57.5318 120.981 57.5572 120.981 57.6334L121.413 59.1833C121.566 59.7676 121.77 60.6569 121.872 61.2667H121.897C121.999 60.6569 122.203 59.6914 122.304 59.2087L122.686 57.5572C122.712 57.481 122.763 57.4302 122.814 57.4302H123.781C123.857 57.4302 123.908 57.481 123.883 57.5826L122.508 62.5116C122.483 62.5878 122.432 62.6133 122.355 62.6133H121.312C121.235 62.6133 121.184 62.5878 121.159 62.5116L120.675 60.8602C120.522 60.3012 120.344 59.4628 120.293 58.98H120.268C120.217 59.4628 120.039 60.3012 119.886 60.8602L119.402 62.5116C119.377 62.5878 119.326 62.6133 119.249 62.6133H118.308Z" fill="white"/>
<path d="M127.695 62.4608C127.695 62.537 127.644 62.5878 127.567 62.5878H126.651C126.574 62.5878 126.523 62.537 126.523 62.4608V57.5572C126.523 57.481 126.574 57.4302 126.651 57.4302H127.567C127.644 57.4302 127.695 57.481 127.695 57.5572V62.4608Z" fill="white"/>
<path d="M134.16 57.4302C134.211 57.4302 134.237 57.4556 134.237 57.5064V57.9129C134.237 57.9637 134.211 57.9891 134.16 57.9891H132.608V62.5116C132.608 62.5624 132.582 62.5878 132.531 62.5878H132.073C132.022 62.5878 131.997 62.5624 131.997 62.5116V57.9891H130.444C130.393 57.9891 130.367 57.9637 130.367 57.9129V57.5064C130.367 57.4556 130.393 57.4302 130.444 57.4302H134.16Z" fill="white"/>
<path d="M140.045 57.5064C140.045 57.4556 140.071 57.4302 140.122 57.4302H140.58C140.631 57.4302 140.656 57.4556 140.656 57.5064V62.5116C140.656 62.5624 140.631 62.5878 140.58 62.5878H140.147C140.096 62.5878 140.071 62.5624 140.071 62.5116V60.2504H137.652V62.5116C137.652 62.5624 137.627 62.5878 137.576 62.5878H137.092C137.041 62.5878 137.016 62.5624 137.016 62.5116V57.5064C137.016 57.4556 137.041 57.4302 137.092 57.4302H137.55C137.601 57.4302 137.627 57.4556 137.627 57.5064V59.6914H140.045V57.5064Z" fill="white"/>
<path d="M147.603 62.6392C147.374 62.6392 147.195 62.4613 147.195 62.2327C147.195 62.004 147.348 61.8262 147.603 61.8262C147.832 61.8262 148.01 62.004 148.01 62.2327C148.01 62.4613 147.832 62.6392 147.603 62.6392Z" fill="white"/>
<path d="M157.464 62.6142C157.388 62.6142 157.337 62.5888 157.312 62.538L156.293 60.8865H155.835V62.4872C155.835 62.5634 155.784 62.6142 155.708 62.6142H154.791C154.715 62.6142 154.664 62.5634 154.664 62.4872V57.5836C154.664 57.5074 154.715 57.4565 154.791 57.4565H156.548C157.77 57.4565 158.483 58.1171 158.483 59.2096C158.483 59.9718 158.101 60.48 157.439 60.7341L158.61 62.4872C158.661 62.5634 158.636 62.6396 158.534 62.6396H157.464V62.6142ZM155.861 58.4982V59.8702H156.548C157.083 59.8702 157.312 59.667 157.312 59.1842C157.312 58.7269 157.083 58.4982 156.548 58.4982H155.861Z" fill="white"/>
<path d="M162.552 61.5461H164.716C164.792 61.5461 164.843 61.5969 164.843 61.6732V62.4608C164.843 62.537 164.792 62.5878 164.716 62.5878H161.534C161.457 62.5878 161.406 62.537 161.406 62.4608V57.5572C161.406 57.481 161.457 57.4302 161.534 57.4302H164.589C164.665 57.4302 164.716 57.481 164.716 57.5572V58.3448C164.716 58.4211 164.665 58.4719 164.589 58.4719H162.552V59.4627H164.359C164.436 59.4627 164.487 59.5136 164.487 59.5898V60.3774C164.487 60.4536 164.436 60.5044 164.359 60.5044H162.552V61.5461Z" fill="white"/>
<path d="M169.373 62.69C168.66 62.69 168.126 62.4613 167.566 62.004C167.515 61.9786 167.515 61.9278 167.54 61.8769L167.795 61.5467C167.82 61.4958 167.871 61.4958 167.897 61.5212C168.406 61.9023 168.839 62.1056 169.399 62.1056C170.061 62.1056 170.646 61.8261 170.646 61.2164C170.646 60.6066 170.111 60.4287 169.297 60.2509C168.431 60.0476 167.566 59.6919 167.566 58.7265C167.566 57.761 168.431 57.3545 169.424 57.3545C170.061 57.3545 170.57 57.5323 171.104 57.9389C171.155 57.9643 171.155 58.0151 171.13 58.0405L170.901 58.3708C170.875 58.4216 170.824 58.4216 170.773 58.3962C170.341 58.0913 169.857 57.9389 169.373 57.9134C168.686 57.9134 168.202 58.1929 168.202 58.7265C168.202 59.2854 168.711 59.4633 169.475 59.6411C170.442 59.8698 171.308 60.1747 171.308 61.191C171.257 62.2326 170.391 62.69 169.373 62.69Z" fill="white"/>
<path d="M176.067 57.4302C177.213 57.4302 177.875 58.0654 177.875 59.1325C177.875 60.1996 177.213 60.8347 176.067 60.8347H174.845V62.537C174.845 62.5878 174.82 62.6133 174.769 62.6133H174.311C174.26 62.6133 174.234 62.5878 174.234 62.537V57.5318C174.234 57.481 174.26 57.4556 174.311 57.4556H176.067V57.4302ZM175.991 60.2504C176.831 60.2504 177.238 59.8693 177.238 59.1325C177.238 58.3957 176.831 58.0145 175.991 58.0145H174.845V60.2758H175.991V60.2504Z" fill="white"/>
<path d="M181.416 62.0289H183.911C183.962 62.0289 183.987 62.0543 183.987 62.1051V62.5116C183.987 62.5624 183.962 62.5878 183.911 62.5878H180.881C180.83 62.5878 180.805 62.5624 180.805 62.5116V57.5064C180.805 57.4556 180.83 57.4302 180.881 57.4302H183.809C183.86 57.4302 183.885 57.4556 183.885 57.5064V57.9129C183.885 57.9637 183.86 57.9891 183.809 57.9891H181.416V59.6914H183.631C183.681 59.6914 183.707 59.7168 183.707 59.7676V60.1742C183.707 60.225 183.681 60.2504 183.631 60.2504H181.416V62.0289Z" fill="white"/>
<path d="M188.691 62.69C187.621 62.69 186.781 62.0802 186.781 60.9115V59.133C186.781 57.9389 187.621 57.3291 188.665 57.3291C189.2 57.3291 189.76 57.507 190.218 57.8372C190.269 57.8626 190.269 57.9135 190.244 57.9389L190.014 58.2692C189.989 58.32 189.938 58.32 189.887 58.2946C189.531 58.0405 189.098 57.9135 188.665 57.9135C187.85 57.9135 187.392 58.3962 187.392 59.133V60.8861C187.392 61.6229 187.85 62.1056 188.665 62.1056C189.149 62.1056 189.607 61.9532 189.989 61.6483C190.014 61.6229 190.065 61.6229 190.091 61.6737L190.32 62.004C190.345 62.0548 190.345 62.0802 190.294 62.131C189.887 62.5121 189.276 62.69 188.691 62.69Z" fill="white"/>
<path d="M196.512 57.4302C196.563 57.4302 196.588 57.4556 196.588 57.5064V57.9129C196.588 57.9637 196.563 57.9891 196.512 57.9891H194.959V62.5116C194.959 62.5624 194.934 62.5878 194.883 62.5878H194.424C194.374 62.5878 194.348 62.5624 194.348 62.5116V57.9891H192.795C192.744 57.9891 192.719 57.9637 192.719 57.9129V57.5064C192.719 57.4556 192.744 57.4302 192.795 57.4302H196.512Z" fill="white"/>
<path d="M42.3115 5.70158L40.173 11.2403C40.173 11.2403 32.0264 7.48009 20.6975 12.6377C12.1435 16.4488 8.63032 25.57 8.63032 25.57L11.4053 26.2306L3.64052 32.5569L0 23.4866L2.8004 24.1726C2.8004 24.1726 5.54988 13.9589 17.8207 7.42927C30.0916 0.899636 42.3115 5.70158 42.3115 5.70158Z" fill="white"/>
<path d="M76.9288 42.8465C73.1101 42.8465 66.8473 42.8465 62.3158 42.8465C62.7231 41.3475 63.0032 39.7468 63.1559 38.0954C66.9492 38.0954 71.7862 38.0954 74.8412 38.0954C80.9512 38.0954 80.9512 32.0739 80.9512 32.0739H63.0541C62.8759 30.3716 62.5704 28.771 62.2139 27.3228C66.7455 27.3228 73.0846 27.3228 76.9288 27.3228C84.0316 27.3228 84.0316 20.7423 84.0316 20.7423H59.77C57.7588 16.7788 55.5948 14.7716 55.5948 14.7716L57.5296 12.6374L47.8046 11.5449L49.714 21.3521L51.6234 19.2179C51.6234 19.2179 58.0134 26.6368 57.326 35.9358C56.8932 42.3638 54.4492 47.2165 52.158 50.4432L41.16 39.6452C41.16 39.6452 44.826 39.6452 44.826 34.7924C44.826 29.9397 44.826 28.0596 44.826 25.1377C44.826 20.7931 41.16 20.7423 41.16 20.7423H19.8516C19.8516 20.7423 19.8516 36.698 19.8516 42.313C19.8516 50.1638 27.6927 50.1638 27.6927 50.1638V39.6198H32.7334L48.0592 54.9911L52.2089 59.2341C52.2089 59.2341 56.5113 55.5755 59.7445 49.427H84.0825C84.0316 49.4015 84.0316 42.8465 76.9288 42.8465ZM37.8759 32.1247C37.8759 32.6328 37.4686 33.0648 36.9594 33.0648H27.7945V27.2973H36.9594C37.4686 27.2973 37.8759 27.7293 37.8759 28.2374V32.1247Z" fill="white"/>
<path d="M123.423 20.7935C121.106 20.8443 118.993 22.1147 117.848 24.1218C117.237 25.1889 116.778 26.3577 116.473 27.5518L113.672 38.5277L110.49 25.6971H107.257H103.998L100.816 38.5277L98.0157 27.5518C97.7102 26.3322 97.2519 25.1889 96.641 24.1218C95.4953 22.1147 93.3823 20.8443 91.0656 20.7935L89.1562 20.7427L96.641 49.1479H104.584L107.232 38.7563L109.879 49.1479H117.822L125.307 20.7427L123.423 20.7935Z" fill="white"/>
<path d="M134.595 49.3257C130.343 49.3257 126.906 45.8957 126.906 41.6528V20.7427C131.158 20.7427 134.595 24.1726 134.595 28.4156V49.3257Z" fill="white"/>
<path d="M173.084 49.3257L166.567 39.0613C166.567 39.0613 170.131 39.0613 170.131 34.3355C170.131 29.6098 170.131 27.8059 170.131 24.9603C170.131 20.7427 166.567 20.6919 166.567 20.6919H145.742C145.742 20.6919 145.742 36.1903 145.742 41.6782C145.742 49.3257 153.405 49.3257 153.405 49.3257V39.0867H158.319L162.392 45.2352C164.072 47.8013 166.949 49.3257 170.029 49.3257H173.084ZM163.385 31.7948C163.385 32.303 162.977 32.7095 162.494 32.7095H153.558V27.0945H162.494C163.003 27.0945 163.385 27.501 163.385 28.0092V31.7948Z" fill="white"/>
<path d="M188.75 42.7961H180.858C180.298 42.7961 179.84 42.3388 179.84 41.7798V39.0612C179.84 38.5023 180.298 38.0449 180.858 38.0449H186.663C192.773 38.0449 192.773 32.0235 192.773 32.0235H180.884C180.323 32.0235 179.865 31.5661 179.865 31.0072V28.314C179.865 27.7551 180.323 27.2977 180.884 27.2977H188.75C195.853 27.2977 195.853 20.7173 195.853 20.7173H179.865H178.49C175.181 20.7173 172.508 23.385 172.508 26.688V43.4313C172.508 46.7342 175.181 49.4019 178.49 49.4019H179.865H195.878C195.853 49.3765 195.853 42.7961 188.75 42.7961Z" fill="white"/>
<path d="M86.6596 37.2829C87.7704 37.2829 88.6708 36.3842 88.6708 35.2757C88.6708 34.1672 87.7704 33.2686 86.6596 33.2686C85.5489 33.2686 84.6484 34.1672 84.6484 35.2757C84.6484 36.3842 85.5489 37.2829 86.6596 37.2829Z" fill="white"/>
<path d="M140.191 37.2829C141.302 37.2829 142.202 36.3842 142.202 35.2757C142.202 34.1672 141.302 33.2686 140.191 33.2686C139.08 33.2686 138.18 34.1672 138.18 35.2757C138.18 36.3842 139.08 37.2829 140.191 37.2829Z" fill="white"/>
<path d="M0.640625 40.0523L6.52146 39.1377C6.52146 39.1377 7.28521 48.0556 17.443 55.2966C25.0041 60.81 34.6782 59.311 34.6782 59.311L33.8635 56.567L43.2321 60.124L37.1731 67.7969L36.3584 65.0276C36.3584 65.0276 26.1242 67.7461 14.3117 60.3526C2.49907 52.9592 0.640625 40.0523 0.640625 40.0523Z" fill="white"/>
<path d="M182.46 7.47159V7.4155C183.043 7.19702 183.562 6.83477 183.969 6.36232C184.375 5.88988 184.655 5.32252 184.784 4.71283C184.913 4.10314 184.885 3.47083 184.705 2.87451C184.524 2.2782 184.196 1.73716 183.75 1.30152C182.819 0.564668 181.659 0.178599 180.472 0.210853H179.711C178.476 0.21398 177.241 0.295153 176.016 0.453907V13.9159H178.421V8.30673H179.668C179.948 8.28208 180.23 8.32482 180.49 8.43139C181.307 8.67445 181.737 9.27899 182.011 10.6688C182.214 11.7695 182.508 12.8515 182.89 13.9034H185.352C185.121 13.355 184.766 11.8218 184.355 10.1266C184.006 8.79287 183.482 7.82685 182.485 7.45914L182.46 7.47159ZM180.497 6.43077C180.266 6.43077 180.085 6.4931 179.873 6.4931H178.471V2.19899C178.972 2.1017 179.482 2.05989 179.992 2.07433H180.522C181.768 2.25507 182.51 2.92194 182.51 4.25567C182.518 4.80323 182.316 5.33317 181.947 5.73737C181.577 6.14157 181.068 6.38956 180.522 6.43077" fill="white"/>
<path d="M192.59 6.04444C190.833 5.3838 190.066 4.90391 190.066 3.88179C190.066 3.04042 190.689 2.19906 192.235 2.19906C193.153 2.20793 194.057 2.43432 194.871 2.85969L195.457 0.877791C194.47 0.412597 193.388 0.186262 192.297 0.21714C189.424 0.21714 187.604 1.8999 187.604 4.06254C187.604 6.04444 189.013 7.2473 191.182 8.02635C192.883 8.64959 193.525 9.22919 193.525 10.2513C193.525 11.2734 192.646 12.121 191.125 12.121C190.008 12.1131 188.914 11.803 187.959 11.2236L187.43 13.2616C188.521 13.8737 189.756 14.1855 191.007 14.1652C194.404 14.1652 195.993 12.2457 195.993 10.083C195.993 8.15722 194.877 6.96684 192.596 6.05691" fill="white"/>
<path d="M131.777 0.404297L129.907 5.79532C129.428 7.40328 128.941 9.0798 128.599 10.5569H128.53C128.187 9.01124 127.776 7.40329 127.284 5.86388L125.564 0.404297H122.329L121.5 13.9161H123.775L124.049 8.52511C124.118 6.65539 124.186 4.46158 124.255 2.71651H124.323C124.686 4.48967 125.146 6.24155 125.701 7.9642L127.421 13.779H129.29L131.285 7.89563C131.833 6.21288 132.388 4.39303 132.868 2.71651C132.868 4.53014 133.005 6.63669 133.074 8.388L133.279 13.9161H135.691L134.937 0.404297H131.777Z" fill="white"/>
<path d="M144.149 0.229492H144.018C140.366 0.285584 137.836 3.18365 137.836 7.28457C137.836 11.2172 140.204 14.1402 143.913 14.1402H144.018C147.621 14.0903 150.251 11.5164 150.251 7.09137C150.251 3.20858 147.995 0.235731 144.118 0.235731L144.149 0.229492ZM144.018 12.1521C141.706 12.1521 140.366 9.90839 140.366 7.22846C140.366 4.54853 141.613 2.19893 144.018 2.19893C146.424 2.19893 147.677 4.60463 147.677 7.12252C147.677 9.9645 146.387 12.1521 144.018 12.1521Z" fill="white"/>
<path d="M167.77 0.229492H167.658C163.999 0.285584 161.469 3.18365 161.469 7.28457C161.469 11.2172 163.837 14.1402 167.552 14.1402H167.658C171.26 14.0903 173.89 11.5164 173.89 7.09137C173.89 3.20858 171.634 0.235731 167.77 0.235731V0.229492ZM167.658 12.1583C165.339 12.1583 163.999 9.91463 163.999 7.2347C163.999 4.55477 165.246 2.20515 167.658 2.20515C170.069 2.20515 171.31 4.61087 171.31 7.12876C171.31 9.97073 170.02 12.1583 167.658 12.1583Z" fill="white"/>
<path d="M150.922 2.47969H154.742V13.9161H157.161V2.47969H160.925V0.404297H150.922V2.47969Z" fill="white"/>
<path d="M74.8325 0.404297H62V4.37433H65.8018V13.9161H71.1492V4.37433H74.8325V0.404297Z" fill="white"/>
<path d="M78.528 0.404297L73.4922 13.9161H78.6277L81.3325 5.86388L84.0623 13.9161H89.2602L84.106 0.404297H78.528Z" fill="white"/>
<path d="M100.865 0.404297H88.0391V4.37433H91.8408V13.9161H97.1882V4.37433H100.865V0.404297Z" fill="white"/>
<path d="M104.567 0.404297L99.5312 13.9161H104.667L107.365 5.86388L110.101 13.9161H115.299L110.139 0.404297H104.567Z" fill="white"/>
</svg>
